# xmcd CD database file
#
# Track frame offsets:
#	150
#	22855
#	39512
#	59082
#
# Disc length: 1086 seconds
#
# Revision: 0
# Processed by: cddbd v1.5PL3 Copyright (c) Steve Scherf et al.
# Submitted via: CDex 1.51
#
DISCID=2c043c04
DTITLE=井上陽水 - この世の定め
DYEAR=2001
DGENRE=Jpop
TTITLE0=この世の定め
TTITLE1=毛ガニ
TTITLE2=名古屋食べ物事情
TTITLE3=この世の定め(Instrumental)
EXTD=YEAR: 2001
EXTT0=
EXTT1=
EXTT2=
EXTT3=
PLAYORDER=
